# xmcd
#
# Track frame offsets:
#	150
#	18593
#	31380
#	43179
#	57125
#	92062
#	108349
#	126969
#	138597
#	156524
#	189454
#	213445
#	225517
#	253397
#	271752
#	287424
#
# Disc length: 4602 seconds
#
# Revision: 1
# Processed by: cddbd v1.5.2PL0 Copyright (c) Steve Scherf et al.
# Submitted via: EZCDAudioConverter 2.1.7.1
#
DISCID=e811f810
DTITLE=V/A - Cult Cargo: Grand Bahama Goombay
DYEAR=2007
DGENRE=
TTITLE0=Cyril Ferguson - Gonna Build A Nation
TTITLE1=Jay Mitchell and The Mitchellites - I Am The Man For You Baby
TTITLE2=Frank Penn - Gimme Some Skin [Instrumental]
TTITLE3=Dry Bread - Words To My Song
TTITLE4=Jay Mitchell - Goombay Bump
TTITLE5=Sylvia Hall - Don't Touch That Thing
TTITLE6=The Mustangs - Watcha Gonna Do 'Bout It
TTITLE7=Frank Penn - Gimme Some Skin
TTITLE8=Ozzie Hall - Take Five
TTITLE9=Jay Mitchell - Tighter and Tighter
TTITLE10=The Mustangs - The Time For Loving Is Now
TTITLE11=Willpower - People Won't Change
TTITLE12=Jay Mitchell - Funky Fever
TTITLE13=Esquires LTD - Theme From Shaft
TTITLE14=Gospel Chandeliers - Honesty Is The Best Policy
TTITLE15=Jay Mitchell - Mustang Sally
EXTD=
EXTT0=
EXTT1=
EXTT2=
EXTT3=
EXTT4=
EXTT5=
EXTT6=
EXTT7=
EXTT8=
EXTT9=
EXTT10=
EXTT11=
EXTT12=
EXTT13=
EXTT14=
EXTT15=
PLAYORDER=
